<svg width="120" height="23" viewBox="0 0 120 23" fill="none" xmlns="http://www.w3.org/2000/svg">
<path d="M4.816 6.992H0.812V2.736H15.344V6.992H11.34V22H4.816V6.992ZM22.4882 22.224C20.9202 22.224 19.6975 21.72 18.8202 20.712C17.9428 19.704 17.5042 18.332 17.5042 16.596V7.972H23.4402V16.344C23.4402 16.7733 23.5522 17.1093 23.7762 17.352C24.0188 17.576 24.3268 17.688 24.7002 17.688C25.0735 17.688 25.4562 17.576 25.8482 17.352L26.1562 21.244C25.7455 21.5613 25.2042 21.804 24.5322 21.972C23.8788 22.14 23.1975 22.224 22.4882 22.224ZM20.4722 5.872C19.5948 5.872 18.8482 5.60133 18.2322 5.06C17.6348 4.5 17.3362 3.81867 17.3362 3.016C17.3362 2.21333 17.6535 1.54133 18.2882 0.999998C18.9228 0.458665 19.6508 0.187999 20.4722 0.187999C21.3308 0.187999 22.0682 0.467999 22.6842 1.028C23.3188 1.588 23.6362 2.25067 23.6362 3.016C23.6362 3.83733 23.3188 4.51867 22.6842 5.06C22.0495 5.60133 21.3122 5.872 20.4722 5.872ZM27.7867 8.168H33.4147V11.024C34.4974 8.85867 36.2147 7.776 38.5667 7.776C40.3587 7.776 41.7587 8.42 42.7667 9.708C43.7934 10.9773 44.3067 12.7413 44.3067 15V22H38.4267V14.412C38.4267 13.6093 38.2494 12.9933 37.8947 12.564C37.5587 12.1347 37.0827 11.92 36.4667 11.92C36.0187 11.92 35.5801 12.0693 35.1507 12.368C34.7214 12.648 34.3667 13.0587 34.0867 13.6C33.8254 14.1413 33.6947 14.7573 33.6947 15.448V22H27.7867V8.168ZM44.9943 2.736H51.2943L53.1143 15.028L54.9903 6.012H61.5143L63.4183 15.028L65.2383 2.736H71.5383L67.1703 22H60.6463L58.2663 11.64L55.8863 22H49.3623L44.9943 2.736ZM79.6117 22.224C78.0437 22.224 76.6437 21.916 75.4117 21.3C74.1983 20.684 73.2463 19.8347 72.5557 18.752C71.8837 17.6507 71.5477 16.3907 71.5477 14.972C71.5477 13.5533 71.893 12.3027 72.5837 11.22C73.2743 10.1187 74.2263 9.26933 75.4397 8.672C76.6717 8.07467 78.0717 7.776 79.6397 7.776C81.2263 7.776 82.6263 8.084 83.8397 8.7C85.0717 9.29733 86.0237 10.1373 86.6957 11.22C87.3677 12.3027 87.7037 13.5533 87.7037 14.972C87.7037 16.4093 87.3583 17.6787 86.6677 18.78C85.9957 19.8627 85.0437 20.712 83.8117 21.328C82.5983 21.9253 81.1983 22.224 79.6117 22.224ZM79.6677 18.024C80.433 18.024 81.0583 17.744 81.5437 17.184C82.0477 16.6053 82.2997 15.868 82.2997 14.972C82.2997 14.076 82.0477 13.348 81.5437 12.788C81.0583 12.2093 80.433 11.92 79.6677 11.92C78.9023 11.92 78.2677 12.2093 77.7637 12.788C77.2783 13.348 77.0357 14.076 77.0357 14.972C77.0357 15.868 77.2783 16.6053 77.7637 17.184C78.2677 17.744 78.9023 18.024 79.6677 18.024ZM89.8023 8.168H95.7103V11.024C96.1397 9.92267 96.7183 9.11067 97.4463 8.588C98.193 8.04667 99.061 7.776 100.05 7.776L100.862 12.34C99.089 12.34 97.7823 12.536 96.9423 12.928C96.121 13.3013 95.7103 13.8987 95.7103 14.72V22H89.8023V8.168ZM116.485 22.224C115.235 22.224 114.227 22.0653 113.461 21.748C112.715 21.412 112.099 20.8613 111.613 20.096C111.128 19.3307 110.699 18.2387 110.325 16.82L108.673 18.136V22H102.737L102.765 3.548L108.701 2.68L108.673 12.256L115.869 6.376L119.089 10.772L114.581 13.908C114.805 15.3267 115.123 16.316 115.533 16.876C115.963 17.436 116.588 17.716 117.409 17.716C117.745 17.716 118.147 17.66 118.613 17.548L118.053 22.14C117.493 22.196 116.971 22.224 116.485 22.224Z" fill="#2E81FB"/>
</svg>
